<?xml version="1.0" encoding="UTF-8" standalone="no"?>
<!-- Created with Inkscape (http://www.inkscape.org/) -->

<svg
   width="32"
   height="32"
   viewBox="0 0 32 32"
   version="1.1"
   id="svg1"
   xmlns="http://www.w3.org/2000/svg"
   xmlns:svg="http://www.w3.org/2000/svg">
  <defs
     id="defs1" />
  <g
     id="layer1">
    <rect
       style="fill:#000000"
       id="rect1"
       width="1.9371867"
       height="13.129821"
       x="6.7801533"
       y="5.6501274" />
    <rect
       style="fill:#800080;stroke-width:1.00238"
       id="rect1-8"
       width="1.9371867"
       height="13.192321"
       x="6.7826028"
       y="14.861558" />
    <rect
       style="fill:#000000"
       id="rect1-2"
       width="1.9371867"
       height="13.129821"
       x="-5.7019444"
       y="8.678956"
       transform="rotate(-89.945889)" />
    <rect
       style="fill:#000080"
       id="rect1-27"
       width="1.9371867"
       height="13.129821"
       x="-5.7112045"
       y="11.95307"
       transform="rotate(-89.969679)" />
    <rect
       style="fill:#d45500;stroke-width:0.87909"
       id="rect1-29"
       width="1.9371867"
       height="10.146714"
       x="25.016735"
       y="5.6546798" />
    <rect
       style="fill:#008000;stroke-width:1.02247"
       id="rect1-6"
       width="1.9371867"
       height="13.726433"
       x="-17.625259"
       y="11.373016"
       transform="matrix(1.1006205e-4,-0.99999999,0.99999999,1.007024e-4,0,0)" />
    <rect
       style="fill:#800000;stroke-width:0.898967"
       id="rect1-279"
       width="1.9371867"
       height="10.610753"
       x="13.273438"
       y="17.488281" />
    <rect
       style="fill:#008080;stroke-width:0.611015"
       id="rect1-24"
       width="1.9371864"
       height="4.9018741"
       x="-29.70232"
       y="8.5568047"
       transform="matrix(2.6054167e-4,-0.99999997,0.99999825,0.00186925,0,0)" />
    <rect
       style="fill:#000000"
       id="rect1-5"
       width="1.9371867"
       height="13.129821"
       x="8.6875"
       y="5.6875" />
    <rect
       style="fill:#800080;stroke-width:0.827073"
       id="rect1-8-5"
       width="1.9371867"
       height="8.9813833"
       x="8.6875"
       y="18.8125" />
    <rect
       style="fill:#800000;stroke-width:0.885852"
       id="rect1-279-4"
       width="1.9371867"
       height="10.303405"
       x="11.365847"
       y="17.487036" />
    <rect
       style="fill:#008000;stroke-width:1.02247"
       id="rect1-6-1"
       width="1.9371867"
       height="13.726433"
       x="-15.709439"
       y="11.377379"
       transform="matrix(1.1006205e-4,-0.99999999,0.99999999,1.007024e-4,0,0)" />
    <rect
       style="fill:#d45500;stroke-width:0.87909"
       id="rect1-29-9"
       width="1.9371867"
       height="10.146714"
       x="23.18198"
       y="5.6568251" />
    <rect
       style="fill:#000080"
       id="rect1-27-3"
       width="1.9371867"
       height="13.129821"
       x="-7.5402369"
       y="11.95321"
       transform="rotate(-89.969679)" />
    <rect
       style="fill:#000000;stroke-width:0.414548"
       id="rect1-2-0"
       width="1.9371859"
       height="2.2563641"
       x="-7.4804363"
       y="10.610749"
       transform="matrix(1.6229573e-4,-0.99999999,0.9999849,0.00549557,0,0)" />
  </g>
</svg>
